<svg width="16" height="19" viewBox="0 0 16 19" fill="none" xmlns="http://www.w3.org/2000/svg">
<path d="M13.2835 10.2108C13.2755 8.74593 13.9381 7.64032 15.2792 6.82608C14.5288 5.7524 13.3952 5.16167 11.8985 5.04592C10.4815 4.93417 8.93287 5.87214 8.3661 5.87214C7.76739 5.87214 6.39436 5.08584 5.31669 5.08584C3.08951 5.12176 0.722626 6.862 0.722626 10.4023C0.722626 11.4481 0.914211 12.5284 1.29738 13.6433C1.80828 15.1082 3.65229 18.7004 5.57613 18.6405C6.58196 18.6166 7.29242 17.9261 8.60159 17.9261C9.87084 17.9261 10.5294 18.6405 11.651 18.6405C13.5908 18.6126 15.2592 15.3477 15.7461 13.8788C13.1438 12.6535 13.2835 10.2866 13.2835 10.2108ZM11.0244 3.65693C12.114 2.36372 12.0142 1.18627 11.9823 0.763184C11.0204 0.819063 9.90677 1.41777 9.27214 2.15617C8.57365 2.94646 8.16254 3.92435 8.25035 5.02597C9.2921 5.1058 10.242 4.57095 11.0244 3.65693Z" fill="black"/>
</svg>
