<svg width="25" height="17" viewBox="0 0 25 17" fill="none" xmlns="http://www.w3.org/2000/svg">
<path d="M5.29181 4.00046H1.61693C0.943203 4.00046 0.391972 3.44923 0.391972 2.7755C0.391972 2.10178 0.943203 1.55054 1.61693 1.55054H5.29181C5.96553 1.55054 6.51676 2.10178 6.51676 2.7755C6.51676 3.44923 5.96553 4.00046 5.29181 4.00046ZM5.29181 7.67534H1.61693C0.943203 7.67534 0.391972 8.22657 0.391972 8.9003C0.391972 9.57402 0.943203 10.1253 1.61693 10.1253H5.29181C5.96553 10.1253 6.51676 9.57402 6.51676 8.9003C6.51676 8.22657 5.96553 7.67534 5.29181 7.67534ZM22.2942 15.3803L18.4724 11.5585C17.4189 12.2444 16.1572 12.6364 14.7975 12.5629C11.8943 12.4282 9.40767 10.162 9.01568 7.28335C8.88631 6.32657 8.98437 5.35277 9.3019 4.441C9.61942 3.52922 10.1475 2.70516 10.8432 2.03571C11.5389 1.36627 12.3826 0.870295 13.3059 0.588059C14.2292 0.305823 15.2061 0.245276 16.1572 0.411334C18.5459 0.81557 20.5303 2.67751 21.057 5.04168C21.4613 6.83012 21.0693 8.49606 20.1996 9.81902L24.0337 13.6531C24.5114 14.1309 24.5114 14.9026 24.0337 15.3803C23.5559 15.8581 22.772 15.8581 22.2942 15.3803ZM18.7664 6.45038C18.7664 4.4292 17.1127 2.7755 15.0915 2.7755C13.0703 2.7755 11.4166 4.4292 11.4166 6.45038C11.4166 8.47156 13.0703 10.1253 15.0915 10.1253C17.1127 10.1253 18.7664 8.47156 18.7664 6.45038ZM1.61693 16.25H11.4166C12.0903 16.25 12.6416 15.6988 12.6416 15.0251C12.6416 14.3514 12.0903 13.8001 11.4166 13.8001H1.61693C0.943203 13.8001 0.391972 14.3514 0.391972 15.0251C0.391972 15.6988 0.943203 16.25 1.61693 16.25Z" fill="currentColor"/>
</svg>
