<svg width="20" height="20" viewBox="0 0 20 20" fill="none" xmlns="http://www.w3.org/2000/svg">
<path fill-rule="evenodd" clip-rule="evenodd" d="M10 0.0797119C15.3307 0.0797119 19.6521 4.40111 19.6521 9.73181C19.6521 15.0625 15.3307 19.3839 10 19.3839C4.6693 19.3839 0.3479 15.0625 0.3479 9.73181C0.3479 4.40111 4.6693 0.0797119 10 0.0797119Z" fill="url(#paint0_linear_112_2)"/>
<path d="M11.2541 19.3029V11.8475H13.3559L13.6345 9.2235H11.2541L11.2576 7.91008C11.2576 7.22569 11.3226 6.85916 12.3057 6.85916H13.6198V4.23474H11.5175C8.99225 4.23474 8.10357 5.50758 8.10357 7.64843V9.2237H6.52942V11.8479H8.10357V19.1972C8.71683 19.3194 9.35083 19.3839 9.99997 19.3839C10.4193 19.384 10.8382 19.3569 11.2541 19.3029Z" fill="white"/>
<defs>
<linearGradient id="paint0_linear_112_2" x1="10" y1="-0.096159" x2="10" y2="20.207" gradientUnits="userSpaceOnUse">
<stop stop-color="#00B2FF"/>
<stop offset="1" stop-color="#006AFF"/>
</linearGradient>
</defs>
</svg>
