<svg width="25" height="25" viewBox="0 0 25 25" fill="none" xmlns="http://www.w3.org/2000/svg">
<g clip-path="url(#clip0_31_249)">
<path d="M12.5183 24.75C19.1558 24.75 24.5365 19.3693 24.5365 12.7318C24.5365 6.09426 19.1558 0.713501 12.5183 0.713501C5.88077 0.713501 0.5 6.09426 0.5 12.7318C0.5 19.3693 5.88077 24.75 12.5183 24.75Z" fill="#E0E0E0"/>
<mask id="mask0_31_249" style="mask-type:luminance" maskUnits="userSpaceOnUse" x="4" y="4" width="17" height="17">
<path d="M20.1895 11.161H12.7009V14.266H17.0114C16.6096 16.2386 14.9292 17.371 12.7009 17.371C10.0708 17.371 7.95204 15.2523 7.95204 12.6222C7.95204 9.99203 10.0708 7.8733 12.7009 7.8733C13.8333 7.8733 14.8561 8.27514 15.6598 8.93267L17.9977 6.59476C16.573 5.35276 14.7466 4.58563 12.7009 4.58563C8.24428 4.58563 4.66437 8.16554 4.66437 12.6222C4.66437 17.0788 8.24428 20.6587 12.7009 20.6587C16.7192 20.6587 20.3721 17.7363 20.3721 12.6222C20.3721 12.1473 20.2991 11.6359 20.1895 11.161Z" fill="white"/>
</mask>
<g mask="url(#mask0_31_249)">
<path d="M3.93378 17.371V7.87329L10.1438 12.6221L3.93378 17.371Z" fill="#FBBC05"/>
</g>
<mask id="mask1_31_249" style="mask-type:luminance" maskUnits="userSpaceOnUse" x="4" y="4" width="17" height="17">
<path d="M20.1895 11.161H12.7009V14.266H17.0114C16.6096 16.2386 14.9292 17.371 12.7009 17.371C10.0708 17.371 7.95204 15.2523 7.95204 12.6222C7.95204 9.99203 10.0708 7.8733 12.7009 7.8733C13.8333 7.8733 14.8561 8.27514 15.6598 8.93267L17.9977 6.59476C16.573 5.35276 14.7466 4.58563 12.7009 4.58563C8.24428 4.58563 4.66437 8.16554 4.66437 12.6222C4.66437 17.0788 8.24428 20.6587 12.7009 20.6587C16.7192 20.6587 20.3721 17.7363 20.3721 12.6222C20.3721 12.1473 20.2991 11.6359 20.1895 11.161Z" fill="white"/>
</mask>
<g mask="url(#mask1_31_249)">
<path d="M3.93378 7.87331L10.1438 12.6222L12.7009 10.3939L21.468 8.9692V3.85504H3.93378V7.87331Z" fill="#EA4335"/>
</g>
<mask id="mask2_31_249" style="mask-type:luminance" maskUnits="userSpaceOnUse" x="4" y="4" width="17" height="17">
<path d="M20.1895 11.161H12.7009V14.266H17.0114C16.6096 16.2386 14.9292 17.371 12.7009 17.371C10.0708 17.371 7.95204 15.2523 7.95204 12.6222C7.95204 9.99203 10.0708 7.8733 12.7009 7.8733C13.8333 7.8733 14.8561 8.27514 15.6598 8.93267L17.9977 6.59476C16.573 5.35276 14.7466 4.58563 12.7009 4.58563C8.24428 4.58563 4.66437 8.16554 4.66437 12.6222C4.66437 17.0788 8.24428 20.6587 12.7009 20.6587C16.7192 20.6587 20.3721 17.7363 20.3721 12.6222C20.3721 12.1473 20.2991 11.6359 20.1895 11.161Z" fill="white"/>
</mask>
<g mask="url(#mask2_31_249)">
<path d="M3.93378 17.371L14.8927 8.9692L17.7785 9.33449L21.468 3.85504V21.3893H3.93378V17.371Z" fill="#34A853"/>
</g>
<mask id="mask3_31_249" style="mask-type:luminance" maskUnits="userSpaceOnUse" x="4" y="4" width="17" height="17">
<path d="M20.1895 11.161H12.7009V14.266H17.0114C16.6096 16.2386 14.9292 17.371 12.7009 17.371C10.0708 17.371 7.95204 15.2523 7.95204 12.6222C7.95204 9.99203 10.0708 7.8733 12.7009 7.8733C13.8333 7.8733 14.8561 8.27514 15.6598 8.93267L17.9977 6.59476C16.573 5.35276 14.7466 4.58563 12.7009 4.58563C8.24428 4.58563 4.66437 8.16554 4.66437 12.6222C4.66437 17.0788 8.24428 20.6587 12.7009 20.6587C16.7192 20.6587 20.3721 17.7363 20.3721 12.6222C20.3721 12.1473 20.2991 11.6359 20.1895 11.161Z" fill="white"/>
</mask>
<g mask="url(#mask3_31_249)">
<path d="M21.468 21.3893L10.1438 12.6221L8.68262 11.5263L21.468 7.87329V21.3893Z" fill="#4285F4"/>
</g>
</g>
<defs>
<clipPath id="clip0_31_249">
<rect x="0.5" y="0.713501" width="24" height="24.0365" rx="12" fill="white"/>
</clipPath>
</defs>
</svg>
