<svg width="32" height="32" viewBox="0 0 32 32" fill="none" xmlns="http://www.w3.org/2000/svg">
    <path
        d="M30.854 16.548C30.523 17.43 29.703 18 28.764 18H28V29C28 29.552 27.552 30 27 30H21V23C21 20.243 18.757 18 16 18C13.243 18 11 20.243 11 23V30H5C4.448 30 4 29.552 4 29V18H3.235C2.296 18 1.476 17.431 1.145 16.549C0.814003 15.667 1.057 14.697 1.765 14.079L13.444 3.01897C14.878 1.66197 17.123 1.66197 18.556 3.01897L30.263 14.105C30.941 14.696 31.185 15.666 30.854 16.548Z"
        fill="currentColor" />
</svg>