<svg width="6" height="21" viewBox="0 0 6 21" fill="none" xmlns="http://www.w3.org/2000/svg">
<path d="M3.39197 5.25C4.76697 5.25 5.89197 4.125 5.89197 2.75C5.89197 1.375 4.76697 0.25 3.39197 0.25C2.01697 0.25 0.891968 1.375 0.891968 2.75C0.891968 4.125 2.01697 5.25 3.39197 5.25ZM3.39197 7.75C2.01697 7.75 0.891968 8.875 0.891968 10.25C0.891968 11.625 2.01697 12.75 3.39197 12.75C4.76697 12.75 5.89197 11.625 5.89197 10.25C5.89197 8.875 4.76697 7.75 3.39197 7.75ZM3.39197 15.25C2.01697 15.25 0.891968 16.375 0.891968 17.75C0.891968 19.125 2.01697 20.25 3.39197 20.25C4.76697 20.25 5.89197 19.125 5.89197 17.75C5.89197 16.375 4.76697 15.25 3.39197 15.25Z" fill="currentColor" fill-opacity="0.6"/>
</svg>
