<svg width="24" height="24" viewBox="0 0 24 24" fill="none" xmlns="http://www.w3.org/2000/svg">
    <path
        d="M16 12C16.0007 12.1762 15.9548 12.3495 15.867 12.5023C15.7792 12.655 15.6526 12.7819 15.5 12.87L8.49999 16.87C8.34759 16.9564 8.17517 17.0012 7.99999 17C7.82482 17.0012 7.6524 16.9564 7.49999 16.87C7.34739 16.7819 7.22077 16.655 7.13297 16.5023C7.04517 16.3495 6.99929 16.1762 6.99999 16V8.00001C6.99929 7.8238 7.04517 7.65053 7.13297 7.49775C7.22077 7.34498 7.34739 7.21811 7.49999 7.13001C7.65201 7.04224 7.82446 6.99603 7.99999 6.99603C8.17553 6.99603 8.34797 7.04224 8.49999 7.13001L15.5 11.13C15.6526 11.2181 15.7792 11.345 15.867 11.4978C15.9548 11.6505 16.0007 11.8238 16 12Z"
        fill="currentColor" />
    <path
        d="M21 9H17C16.7348 9 16.4804 8.89464 16.2929 8.70711C16.1054 8.51957 16 8.26522 16 8C16 7.73478 16.1054 7.48043 16.2929 7.29289C16.4804 7.10536 16.7348 7 17 7H21C21.2652 7 21.5196 7.10536 21.7071 7.29289C21.8946 7.48043 22 7.73478 22 8C22 8.26522 21.8946 8.51957 21.7071 8.70711C21.5196 8.89464 21.2652 9 21 9Z"
        fill="currentColor" />
    <path
        d="M21 17H17C16.7348 17 16.4804 16.8946 16.2929 16.7071C16.1054 16.5196 16 16.2652 16 16C16 15.7348 16.1054 15.4804 16.2929 15.2929C16.4804 15.1054 16.7348 15 17 15H21C21.2652 15 21.5196 15.1054 21.7071 15.2929C21.8946 15.4804 22 15.7348 22 16C22 16.2652 21.8946 16.5196 21.7071 16.7071C21.5196 16.8946 21.2652 17 21 17Z"
        fill="currentColor" />
    <path
        d="M21 5H3C2.73478 5 2.48043 4.89464 2.29289 4.70711C2.10536 4.51957 2 4.26522 2 4C2 3.73478 2.10536 3.48043 2.29289 3.29289C2.48043 3.10536 2.73478 3 3 3H21C21.2652 3 21.5196 3.10536 21.7071 3.29289C21.8946 3.48043 22 3.73478 22 4C22 4.26522 21.8946 4.51957 21.7071 4.70711C21.5196 4.89464 21.2652 5 21 5Z"
        fill="currentColor" />
    <path
        d="M21 21H3C2.73478 21 2.48043 20.8946 2.29289 20.7071C2.10536 20.5196 2 20.2652 2 20C2 19.7348 2.10536 19.4804 2.29289 19.2929C2.48043 19.1054 2.73478 19 3 19H21C21.2652 19 21.5196 19.1054 21.7071 19.2929C21.8946 19.4804 22 19.7348 22 20C22 20.2652 21.8946 20.5196 21.7071 20.7071C21.5196 20.8946 21.2652 21 21 21Z"
        fill="currentColor" />
    <path
        d="M3 9C3.55228 9 4 8.55228 4 8C4 7.44772 3.55228 7 3 7C2.44772 7 2 7.44772 2 8C2 8.55228 2.44772 9 3 9Z"
        fill="currentColor" />
    <path
        d="M3 13C3.55228 13 4 12.5523 4 12C4 11.4477 3.55228 11 3 11C2.44772 11 2 11.4477 2 12C2 12.5523 2.44772 13 3 13Z"
        fill="currentColor" />
    <path
        d="M3 17C3.55228 17 4 16.5523 4 16C4 15.4477 3.55228 15 3 15C2.44772 15 2 15.4477 2 16C2 16.5523 2.44772 17 3 17Z"
        fill="currentColor" />
    <path
        d="M21 13H19C18.7348 13 18.4804 12.8946 18.2929 12.7071C18.1054 12.5196 18 12.2652 18 12C18 11.7348 18.1054 11.4804 18.2929 11.2929C18.4804 11.1054 18.7348 11 19 11H21C21.2652 11 21.5196 11.1054 21.7071 11.2929C21.8946 11.4804 22 11.7348 22 12C22 12.2652 21.8946 12.5196 21.7071 12.7071C21.5196 12.8946 21.2652 13 21 13Z"
        fill="currentColor" />
</svg>