<svg width="19" height="24" viewBox="0 0 19 24" fill="none" xmlns="http://www.w3.org/2000/svg">
<path d="M1.51697 19.875C1.19822 19.875 0.930847 19.767 0.714847 19.551C0.498847 19.335 0.391222 19.068 0.391972 18.75C0.391972 18.4312 0.499972 18.1639 0.715972 17.9479C0.931972 17.7319 1.19897 17.6242 1.51697 17.625H2.64197V9.75C2.64197 8.19375 3.11072 6.81075 4.04822 5.601C4.98572 4.39125 6.20447 3.59925 7.70447 3.225V2.4375C7.70447 1.96875 7.86872 1.57013 8.19722 1.24163C8.52572 0.913128 8.92397 0.749253 9.39197 0.750003C9.86072 0.750003 10.2593 0.914252 10.5878 1.24275C10.9163 1.57125 11.0802 1.9695 11.0795 2.4375V3.225C12.5795 3.6 13.7982 4.39238 14.7357 5.60213C15.6732 6.81188 16.142 8.1945 16.142 9.75V17.625H17.267C17.5857 17.625 17.8531 17.733 18.0691 17.949C18.2851 18.165 18.3927 18.432 18.392 18.75C18.392 19.0687 18.284 19.3361 18.068 19.5521C17.852 19.7681 17.585 19.8757 17.267 19.875H1.51697ZM9.39197 23.25C8.77322 23.25 8.24334 23.0295 7.80234 22.5885C7.36134 22.1475 7.14122 21.618 7.14197 21H11.642C11.642 21.6187 11.4215 22.1486 10.9805 22.5896C10.5395 23.0306 10.01 23.2507 9.39197 23.25Z" fill="currentColor" fill-opacity="0.6"/>
</svg>
