<svg width="19" height="21" viewBox="0 0 19 21" fill="none" xmlns="http://www.w3.org/2000/svg">
    <path
        d="M9.09692 11.1236C8.74893 11.1249 8.41101 11.2406 8.13512 11.4527C7.85923 11.6648 7.66064 11.9616 7.56987 12.2975C7.4791 12.6335 7.50119 12.9899 7.63273 13.3121C7.76427 13.6343 7.99798 13.9044 8.29795 14.0808V16.3462H9.91538V14.0808C10.1527 13.9404 10.3497 13.741 10.4871 13.502C10.6245 13.2629 10.6978 12.9924 10.6997 12.7167V12.7167C10.6997 12.5066 10.6582 12.2987 10.5775 12.1048C10.4969 11.9109 10.3787 11.7348 10.2297 11.5867C10.0807 11.4387 9.90396 11.3215 9.70956 11.2421C9.51515 11.1626 9.30694 11.1223 9.09692 11.1236V11.1236Z"
        stroke="currentColor" stroke-linecap="round" stroke-linejoin="round" />
    <path
        d="M15.0844 7.46487H3.10462C1.94227 7.46487 1 8.40714 1 9.56949V17.8954C1 19.0577 1.94227 20 3.10462 20H15.0844C16.2467 20 17.189 19.0577 17.189 17.8954V9.56949C17.189 8.40714 16.2467 7.46487 15.0844 7.46487Z"
        stroke="currentColor" stroke-width="2" stroke-linecap="round" stroke-linejoin="round" />
    <path
        d="M3.90845 7.46487V6.19333C3.90845 4.81598 4.4556 3.49503 5.42954 2.52109C6.40348 1.54715 7.72442 1 9.10178 1C10.4791 1 11.8001 1.54715 12.774 2.52109C13.748 3.49503 14.2951 4.81598 14.2951 6.19333V7.46487"
        stroke="currentColor" stroke-width="2" stroke-linecap="round" stroke-linejoin="round" />
</svg>