<svg width="24" height="24" viewBox="0 0 24 24" fill="none" xmlns="http://www.w3.org/2000/svg">
    <path
        d="M10 9C9.73478 9 9.48043 8.89464 9.29289 8.70711C9.10536 8.51957 9 8.26522 9 8C9 7.20435 9.31607 6.44129 9.87868 5.87868C10.4413 5.31607 11.2044 5 12 5C12.2652 5 12.5196 5.10536 12.7071 5.29289C12.8946 5.48043 13 5.73478 13 6C13 6.26522 12.8946 6.51957 12.7071 6.70711C12.5196 6.89464 12.2652 7 12 7C11.7348 7 11.4804 7.10536 11.2929 7.29289C11.1054 7.48043 11 7.73478 11 8C11 8.26522 10.8946 8.51957 10.7071 8.70711C10.5196 8.89464 10.2652 9 10 9Z"
        fill="currentColor" />
    <path
        d="M18 22H6C5.75124 22.0012 5.51094 21.9097 5.32603 21.7433C5.14112 21.5769 5.02488 21.3475 5 21.1L4 11.1C3.98703 10.9606 4.00346 10.82 4.04825 10.6874C4.09304 10.5548 4.16518 10.433 4.26 10.33C4.3535 10.2264 4.46764 10.1435 4.59508 10.0867C4.72253 10.0299 4.86046 10.0003 5 10H19C19.2652 10 19.5196 10.1054 19.7071 10.2929C19.8946 10.4804 20 10.7348 20 11C20 11.2652 19.8946 11.5196 19.7071 11.7071C19.5196 11.8946 19.2652 12 19 12H6.1L6.9 20H17.1L17.71 13.9C17.7353 13.6362 17.8643 13.3932 18.0687 13.2244C18.2731 13.0556 18.5361 12.9749 18.8 13C18.9316 13.0125 19.0594 13.0509 19.176 13.1131C19.2926 13.1753 19.3957 13.26 19.4794 13.3623C19.5631 13.4646 19.6257 13.5824 19.6636 13.7091C19.7014 13.8357 19.7138 13.9686 19.7 14.1L19 21.1C18.9751 21.3475 18.8589 21.5769 18.674 21.7433C18.4891 21.9097 18.2488 22.0012 18 22Z"
        fill="currentColor" />
    <path
        d="M13.9 22C13.6348 22 13.3804 21.8946 13.1929 21.7071C13.0054 21.5196 12.9 21.2652 12.9 21L13.3 11C13.3106 10.7348 13.4261 10.4846 13.6212 10.3046C13.8162 10.1246 14.0748 10.0294 14.34 10.04C14.6052 10.0506 14.8554 10.1661 15.0354 10.3612C15.2154 10.5562 15.3106 10.8148 15.3 11.08L14.9 21.08C14.8798 21.3311 14.7657 21.5654 14.5803 21.7359C14.3949 21.9065 14.1519 22.0008 13.9 22Z"
        fill="currentColor" />
    <path
        d="M10 22C9.74322 22.0003 9.49616 21.9019 9.31 21.725C9.12383 21.5482 9.01284 21.3065 9 21.05L8.5 11.05C8.49343 10.9187 8.5128 10.7874 8.55698 10.6635C8.60117 10.5397 8.66932 10.4258 8.75754 10.3283C8.84575 10.2308 8.95231 10.1516 9.07112 10.0953C9.18993 10.039 9.31868 10.0066 9.45 10C9.58132 9.99346 9.71265 10.0128 9.83649 10.057C9.96033 10.1012 10.0742 10.1694 10.1717 10.2576C10.2693 10.3458 10.3484 10.4523 10.4047 10.5712C10.4611 10.69 10.4934 10.8187 10.5 10.95L11 21C11.0003 21.2568 10.9019 21.5039 10.725 21.69C10.5481 21.8762 10.3065 21.9872 10.05 22H10Z"
        fill="currentColor" />
    <path
        d="M5 12H4C3.73478 12 3.48043 11.8946 3.29289 11.7071C3.10536 11.5196 3 11.2652 3 11C3 10.7348 3.10536 10.4804 3.29289 10.2929C3.48043 10.1054 3.73478 10 4 10H5C5.26522 10 5.51957 10.1054 5.70711 10.2929C5.89464 10.4804 6 10.7348 6 11C6 11.2652 5.89464 11.5196 5.70711 11.7071C5.51957 11.8946 5.26522 12 5 12Z"
        fill="currentColor" />
    <path
        d="M20 12H19C18.7348 12 18.4804 11.8946 18.2929 11.7071C18.1054 11.5196 18 11.2652 18 11C18 10.7348 18.1054 10.4804 18.2929 10.2929C18.4804 10.1054 18.7348 10 19 10H20C20.2652 10 20.5196 10.1054 20.7071 10.2929C20.8946 10.4804 21 10.7348 21 11C21 11.2652 20.8946 11.5196 20.7071 11.7071C20.5196 11.8946 20.2652 12 20 12Z"
        fill="currentColor" />
    <path
        d="M5.17001 11C4.97874 11.0005 4.79135 10.9461 4.63006 10.8433C4.46877 10.7405 4.34034 10.5936 4.26001 10.42C3.93474 9.71974 3.86776 8.92697 4.07091 8.18206C4.27407 7.43715 4.73426 6.78816 5.37001 6.34999C5.2252 5.81292 5.2252 5.24707 5.37001 4.70999C5.59959 3.89113 6.14008 3.19439 6.87616 2.76843C7.61224 2.34248 8.48564 2.22103 9.31001 2.42999C9.609 1.9907 10.0109 1.63115 10.4806 1.38266C10.9503 1.13417 11.4736 1.00427 12.005 1.00427C12.5364 1.00427 13.0597 1.13417 13.5294 1.38266C13.9992 1.63115 14.401 1.9907 14.7 2.42999C15.4639 2.2545 16.2654 2.36007 16.9578 2.72737C17.6501 3.09467 18.187 3.69912 18.47 4.42999C18.7323 5.06326 18.7883 5.76309 18.63 6.42999C19.2216 6.82272 19.6678 7.39893 19.9 8.06999C19.9796 8.32328 19.9553 8.59779 19.8324 8.83315C19.7096 9.06851 19.4983 9.24543 19.245 9.32499C18.9917 9.40456 18.7172 9.38025 18.4819 9.25741C18.2465 9.13458 18.0696 8.92328 17.99 8.66999C17.9239 8.46281 17.8069 8.27551 17.6496 8.12527C17.4924 7.97502 17.3 7.86662 17.09 7.80999C16.9392 7.76925 16.8001 7.69376 16.6837 7.58957C16.5674 7.48538 16.4771 7.35538 16.42 7.20999C16.3632 7.06346 16.3418 6.90561 16.3574 6.74924C16.3731 6.59287 16.4253 6.44239 16.51 6.30999C16.51 6.24999 16.58 6.18999 16.61 6.11999C16.6794 5.96244 16.7153 5.79216 16.7153 5.61999C16.7153 5.44783 16.6794 5.27755 16.61 5.11999C16.5468 4.96361 16.4533 4.82126 16.3349 4.70112C16.2165 4.58099 16.0755 4.48545 15.92 4.41999C15.7289 4.33695 15.5201 4.30261 15.3124 4.32006C15.1047 4.33751 14.9046 4.40621 14.73 4.51999C14.6019 4.60455 14.456 4.65846 14.3037 4.67757C14.1514 4.69668 13.9967 4.68047 13.8517 4.63019C13.7066 4.57991 13.5751 4.49691 13.4673 4.38763C13.3595 4.27834 13.2783 4.14571 13.23 3.99999C13.23 3.89999 13.23 3.86999 13.23 3.82999C13.1318 3.59537 12.9665 3.39501 12.7547 3.25409C12.543 3.11317 12.2943 3.03799 12.04 3.03799C11.7857 3.03799 11.537 3.11317 11.3253 3.25409C11.1135 3.39501 10.9482 3.59537 10.85 3.82999L10.75 3.99999C10.7042 4.14629 10.6254 4.2801 10.5196 4.39107C10.4138 4.50204 10.2839 4.58721 10.14 4.63999C9.99625 4.69349 9.84211 4.7132 9.68951 4.69759C9.53692 4.68198 9.38996 4.63148 9.26001 4.54999C9.07305 4.43204 8.85872 4.36452 8.63791 4.354C8.4171 4.34349 8.19733 4.39034 8.00001 4.48999C7.85229 4.57141 7.72228 4.68142 7.61754 4.81363C7.51281 4.94583 7.43546 5.09757 7.39001 5.25999C7.33745 5.42511 7.32009 5.59941 7.33904 5.77165C7.35798 5.94389 7.41282 6.11025 7.50001 6.25999V6.31999C7.58631 6.45156 7.64034 6.60164 7.65772 6.75803C7.67509 6.91441 7.65532 7.07269 7.60001 7.21999C7.54326 7.36837 7.45198 7.5011 7.33373 7.60718C7.21548 7.71326 7.07366 7.78964 6.92001 7.82999C6.71039 7.87553 6.51587 7.97383 6.35487 8.11558C6.19387 8.25733 6.07173 8.43783 6.00001 8.64C5.8998 8.94957 5.92126 9.28568 6.06001 9.57999C6.11515 9.70005 6.14595 9.82985 6.15063 9.96189C6.15532 10.0939 6.13379 10.2256 6.0873 10.3492C6.04081 10.4729 5.97027 10.5861 5.87977 10.6824C5.78926 10.7786 5.68058 10.856 5.56001 10.91C5.4374 10.966 5.30474 10.9966 5.17001 11Z"
        fill="currentColor" />
</svg>