<svg width="21" height="21" viewBox="0 0 21 21" fill="none" xmlns="http://www.w3.org/2000/svg">
<path d="M3.14397 8.25C2.97612 8.9034 2.89145 9.57538 2.89197 10.25C2.89197 10.94 2.97997 11.61 3.14397 12.25H5.99197C5.85715 10.9201 5.85715 9.57993 5.99197 8.25H3.14397ZM3.96197 6.25H6.30797C6.57397 5.033 6.95797 3.943 7.42897 3.036C5.97715 3.73542 4.76918 4.85523 3.96197 6.25ZM18.64 8.25H15.792C15.9268 9.57993 15.9268 10.9201 15.792 12.25H18.64C18.9766 10.9379 18.9766 9.56208 18.64 8.25ZM17.822 6.25C17.0148 4.85523 15.8068 3.73542 14.355 3.036C14.827 3.943 15.21 5.033 15.476 6.25H17.822ZM8.00397 8.25C7.92904 8.91403 7.89165 9.58176 7.89197 10.25C7.89197 10.935 7.92997 11.605 8.00397 12.25H13.78C13.9306 10.9209 13.9306 9.57908 13.78 8.25H8.00397ZM8.36197 6.25H13.422C13.24 5.4983 12.9775 4.76841 12.639 4.073C12.011 2.818 11.339 2.25 10.892 2.25C10.444 2.25 9.77297 2.818 9.14497 4.073C8.82997 4.705 8.56497 5.44 8.36197 6.25ZM3.96197 14.25C4.76918 15.6448 5.97715 16.7646 7.42897 17.464C6.95697 16.557 6.57397 15.467 6.30797 14.25H3.96197ZM17.822 14.25H15.476C15.21 15.467 14.826 16.557 14.355 17.464C15.8068 16.7646 17.0148 15.6448 17.822 14.25ZM8.36197 14.25C8.56497 15.06 8.82997 15.795 9.14497 16.427C9.77297 17.682 10.445 18.25 10.892 18.25C11.34 18.25 12.011 17.682 12.639 16.427C12.954 15.795 13.219 15.06 13.422 14.25H8.36197ZM10.892 20.25C5.36897 20.25 0.891968 15.773 0.891968 10.25C0.891968 4.727 5.36897 0.25 10.892 0.25C16.415 0.25 20.892 4.727 20.892 10.25C20.892 15.773 16.415 20.25 10.892 20.25Z" fill="currentColor" fill-opacity="0.6"/>
</svg>
